<?xml version="1.0" standalone="no"?>
<!DOCTYPE svg PUBLIC "-//W3C//DTD SVG 20010904//EN"
 "http://www.w3.org/TR/2001/REC-SVG-20010904/DTD/svg10.dtd">
<svg version="1.0" xmlns="http://www.w3.org/2000/svg"
 width="20px" height="20px" viewBox="0 0 16.000000 16.000000"
 preserveAspectRatio="xMidYMid meet">

<g transform="translate(0.000000,16.000000) scale(0.100000,-0.100000)"
fill="#71aaeb" stroke="none">
<path d="M10 80 l0 -60 70 0 70 0 0 60 0 60 -70 0 -70 0 0 -60z m130 13 c0
-34 -1 -35 -18 -20 -13 12 -22 13 -29 6 -7 -7 -14 -5 -23 6 -12 14 -15 14 -31
-1 -18 -16 -19 -16 -19 14 l0 32 60 0 60 0 0 -37z m-45 -23 c5 8 13 6 26 -6
31 -28 23 -34 -41 -34 -64 0 -73 9 -43 42 15 17 18 17 34 2 12 -11 19 -12 24
-4z"/>
<path d="M110 110 c0 -5 5 -10 10 -10 6 0 10 5 10 10 0 6 -4 10 -10 10 -5 0
-10 -4 -10 -10z"/>
</g>
</svg>
