<?xml version="1.0" standalone="no"?>
<!DOCTYPE svg PUBLIC "-//W3C//DTD SVG 20010904//EN"
 "http://www.w3.org/TR/2001/REC-SVG-20010904/DTD/svg10.dtd">
<svg version="1.0" xmlns="http://www.w3.org/2000/svg"
 width="20px" height="20px" viewBox="0 0 16.000000 16.000000"
 preserveAspectRatio="xMidYMid meet">

<g transform="translate(0.000000,16.000000) scale(0.100000,-0.100000)"
fill="#71aaeb" stroke="none">
<path d="M54 126 c-3 -9 -3 -23 0 -32 3 -8 -1 -22 -9 -30 -8 -9 -15 -21 -15
-27 0 -6 7 -1 16 11 8 12 24 22 34 22 10 0 26 -10 34 -22 9 -12 16 -17 16 -11
0 6 -6 18 -13 25 -7 7 -13 27 -13 43 1 24 -4 31 -22 33 -13 2 -25 -3 -28 -12z
m42 -7 c10 -17 -13 -36 -27 -22 -12 12 -4 33 11 33 5 0 12 -5 16 -11z"/>
</g>
</svg>
