<?xml version="1.0" standalone="no"?>
<!DOCTYPE svg PUBLIC "-//W3C//DTD SVG 20010904//EN"
 "http://www.w3.org/TR/2001/REC-SVG-20010904/DTD/svg10.dtd">
<svg version="1.0" xmlns="http://www.w3.org/2000/svg"
 width="20px" height="20px" viewBox="0 0 512.000000 512.000000"
 preserveAspectRatio="xMidYMid meet">

<g transform="translate(0.000000,512.000000) scale(0.100000,-0.100000)"
fill="#71aaeb" stroke="none">
<path d="M681 4624 c-169 -45 -301 -180 -346 -351 -13 -50 -15 -278 -15 -1713
0 -1823 -4 -1709 61 -1831 62 -115 197 -214 328 -239 74 -14 3628 -14 3702 0
184 35 345 196 379 379 14 75 14 3309 0 3382 -25 131 -124 266 -239 328 -123
65 9 61 -1996 60 -1556 0 -1828 -2 -1874 -15z m279 -464 l0 -160 -160 0 -160
0 0 94 c0 102 9 137 43 175 36 39 75 50 180 51 l97 0 0 -160z m3446 134 c60
-44 69 -67 72 -185 l4 -109 -161 0 -161 0 0 161 0 161 109 -4 c92 -2 114 -6
137 -24z m-3446 -774 l0 -160 -160 0 -160 0 0 160 0 160 160 0 160 0 0 -160z
m3520 0 l0 -160 -160 0 -160 0 0 160 0 160 160 0 160 0 0 -160z m-2463 32 c75
-25 1328 -710 1379 -755 23 -21 56 -63 71 -95 24 -48 28 -70 28 -137 0 -96
-30 -171 -93 -232 -27 -26 -233 -141 -683 -380 -354 -188 -662 -350 -684 -359
-25 -11 -67 -18 -115 -18 -62 -1 -85 4 -131 27 -66 32 -132 99 -162 165 -22
47 -22 49 -22 802 l0 755 26 55 c71 150 233 222 386 172z m-1057 -672 l0 -160
-160 0 -160 0 0 160 0 160 160 0 160 0 0 -160z m3520 0 l0 -160 -160 0 -160 0
0 160 0 160 160 0 160 0 0 -160z m-3520 -640 l0 -160 -160 0 -160 0 0 160 0
160 160 0 160 0 0 -160z m3520 0 l0 -160 -160 0 -160 0 0 160 0 160 160 0 160
0 0 -160z m-3520 -640 l0 -160 -160 0 -160 0 0 160 0 160 160 0 160 0 0 -160z
m3520 0 l0 -160 -160 0 -160 0 0 160 0 160 160 0 160 0 0 -160z m-3520 -641
l0 -161 -109 4 c-92 2 -114 6 -137 24 -60 44 -69 67 -72 185 l-4 109 161 0
161 0 0 -161z m3518 52 c-3 -118 -12 -141 -72 -185 -23 -18 -45 -22 -137 -24
l-109 -4 0 161 0 161 161 0 161 0 -4 -109z"/>
</g>
</svg>
