<?xml version="1.0" standalone="no"?>
<!DOCTYPE svg PUBLIC "-//W3C//DTD SVG 20010904//EN"
 "http://www.w3.org/TR/2001/REC-SVG-20010904/DTD/svg10.dtd">
<svg version="1.0" xmlns="http://www.w3.org/2000/svg"
 width="20px" height="20px" viewBox="0 0 16.000000 16.000000"
 preserveAspectRatio="xMidYMid meet">

<g transform="translate(0.000000,16.000000) scale(0.100000,-0.100000)"
fill="#71aaeb" stroke="none">
<path d="M10 85 l0 -55 70 0 70 0 0 55 0 55 -70 0 -70 0 0 -55z m125 0 l0 -40
-55 0 c-53 0 -55 1 -58 28 -6 51 3 58 60 55 l53 -3 0 -40z"/>
<path d="M30 116 c0 -2 11 -11 25 -20 23 -15 27 -15 50 0 14 9 23 19 20 22 -3
3 -14 -3 -25 -13 -19 -17 -21 -17 -38 -2 -17 16 -32 22 -32 13z"/>
</g>
</svg>
