<?xml version="1.0" standalone="no"?>
<!DOCTYPE svg PUBLIC "-//W3C//DTD SVG 20010904//EN"
 "http://www.w3.org/TR/2001/REC-SVG-20010904/DTD/svg10.dtd">
<svg version="1.0" xmlns="http://www.w3.org/2000/svg"
 width="20px" height="20px" viewBox="0 0 512.000000 512.000000"
 preserveAspectRatio="xMidYMid meet">

<g transform="translate(0.000000,512.000000) scale(0.100000,-0.100000)"
fill="#71aaeb" stroke="none">
<path d="M3665 5009 c-390 -60 -885 -135 -1098 -168 -351 -53 -394 -62 -452
-90 -101 -50 -178 -149 -205 -263 -6 -27 -10 -589 -10 -1541 l0 -1497 -58 29
c-437 220 -1093 65 -1394 -330 -182 -239 -217 -499 -98 -737 202 -402 820
-533 1336 -282 365 177 589 519 545 834 -12 89 -17 2726 -4 2726 3 0 517 86
1140 190 624 105 1136 190 1139 190 2 0 4 -409 4 -910 0 -620 -3 -910 -10
-910 -6 0 -32 11 -59 24 -237 121 -579 130 -878 25 -454 -160 -736 -547 -669
-919 94 -520 799 -750 1397 -455 127 62 203 117 305 219 105 106 172 210 210
331 l26 80 -2 1575 c-1 866 -5 1605 -10 1642 -25 203 -195 352 -395 347 -27
-1 -369 -50 -760 -110z m816 -228 c24 -19 24 -22 24 -202 l0 -183 -1112 -187
c-612 -102 -1126 -189 -1143 -192 l-30 -6 0 208 c0 184 2 211 17 230 16 19 49
26 248 56 1138 173 1652 251 1775 270 183 29 193 29 221 6z m-316 -2747 c162
-36 290 -132 334 -249 81 -214 -107 -483 -421 -605 -282 -109 -618 -71 -777
88 -68 69 -95 130 -95 222 -1 66 4 84 36 153 139 291 564 471 923 391z m-2627
-790 c149 -30 295 -122 343 -216 107 -209 -44 -473 -354 -618 -129 -61 -237
-84 -392 -84 -194 -1 -337 47 -435 145 -73 73 -95 127 -95 229 0 76 4 92 34
155 45 92 165 214 276 279 82 47 225 100 318 115 85 14 222 12 305 -5z"/>
</g>
</svg>
