<?xml version="1.0" standalone="no"?>
<!DOCTYPE svg PUBLIC "-//W3C//DTD SVG 20010904//EN"
 "http://www.w3.org/TR/2001/REC-SVG-20010904/DTD/svg10.dtd">
<svg version="1.0" xmlns="http://www.w3.org/2000/svg"
 width="20px" height="20px" viewBox="0 0 16.000000 16.000000"
 preserveAspectRatio="xMidYMid meet">

<g transform="translate(0.000000,16.000000) scale(0.100000,-0.100000)"
fill="#71aaeb" stroke="none">
<path d="M24 116 c-3 -8 -3 -19 0 -24 3 -6 -1 -15 -9 -22 -8 -7 -15 -18 -15
-24 0 -6 5 -4 10 6 8 12 25 16 70 16 45 0 62 -4 70 -16 5 -10 10 -12 10 -7 0
6 -5 16 -12 23 -7 7 -13 22 -13 35 0 33 -40 31 -40 -3 0 -15 -6 -25 -15 -25
-9 0 -15 10 -15 25 0 28 -32 41 -41 16z m36 -11 c0 -8 -7 -15 -15 -15 -8 0
-15 7 -15 15 0 8 7 15 15 15 8 0 15 -7 15 -15z m70 0 c0 -8 -7 -15 -15 -15 -8
0 -15 7 -15 15 0 8 7 15 15 15 8 0 15 -7 15 -15z"/>
</g>
</svg>
