<?xml version="1.0" standalone="no"?>
<!DOCTYPE svg PUBLIC "-//W3C//DTD SVG 20010904//EN"
 "http://www.w3.org/TR/2001/REC-SVG-20010904/DTD/svg10.dtd">
<svg version="1.0" xmlns="http://www.w3.org/2000/svg"
 width="20px" height="20px" viewBox="0 0 16.000000 16.000000"
 preserveAspectRatio="xMidYMid meet">

<g transform="translate(0.000000,16.000000) scale(0.100000,-0.100000)"
fill="#71aaeb" stroke="none">
<path d="M57 124 c-4 -4 -7 -15 -7 -25 0 -12 -5 -16 -15 -13 -10 4 -18 -3 -25
-21 -13 -35 -13 -40 5 -25 12 10 15 10 15 -1 0 -8 7 -4 16 9 8 12 24 22 34 22
10 0 26 -10 34 -22 9 -13 16 -17 16 -9 0 11 3 11 15 1 18 -15 18 -10 5 25 -7
17 -15 25 -25 22 -9 -4 -15 2 -17 16 -3 22 -36 35 -51 21z m39 -15 c10 -17
-13 -36 -27 -22 -12 12 -4 33 11 33 5 0 12 -5 16 -11z m-56 -39 c0 -5 -4 -10
-10 -10 -5 0 -10 5 -10 10 0 6 5 10 10 10 6 0 10 -4 10 -10z m100 0 c0 -5 -4
-10 -10 -10 -5 0 -10 5 -10 10 0 6 5 10 10 10 6 0 10 -4 10 -10z"/>
</g>
</svg>
