<?xml version="1.0" standalone="no"?>
<!DOCTYPE svg PUBLIC "-//W3C//DTD SVG 20010904//EN"
 "http://www.w3.org/TR/2001/REC-SVG-20010904/DTD/svg10.dtd">
<svg version="1.0" xmlns="http://www.w3.org/2000/svg"
 width="20px" height="20px" viewBox="0 0 512.000000 512.000000"
 preserveAspectRatio="xMidYMid meet">

<g transform="translate(0.000000,512.000000) scale(0.100000,-0.100000)"
fill="#71aaeb" stroke="none">
<path d="M626 5106 c-54 -20 -85 -45 -121 -95 l-30 -43 -3 -2386 c-2 -1594 1
-2399 7 -2422 14 -48 64 -106 114 -132 54 -29 156 -30 207 -3 90 47 3749 2340
3779 2368 46 44 71 101 71 167 0 66 -25 123 -71 166 -30 28 -3697 2327 -3779
2369 -45 23 -127 28 -174 11z"/>
</g>
</svg>
