<?xml version="1.0" standalone="no"?>
<!DOCTYPE svg PUBLIC "-//W3C//DTD SVG 20010904//EN"
 "http://www.w3.org/TR/2001/REC-SVG-20010904/DTD/svg10.dtd">
<svg version="1.0" xmlns="http://www.w3.org/2000/svg"
 width="20px" height="20px" viewBox="0 0 512.000000 512.000000"
 preserveAspectRatio="xMidYMid meet">

<g transform="translate(0.000000,512.000000) scale(0.100000,-0.100000)"
fill="#71aaeb" stroke="none">
<path d="M2007 4694 c-368 -54 -751 -224 -1052 -467 -44 -36 -128 -114 -186
-173 -410 -422 -628 -992 -606 -1584 20 -528 214 -990 579 -1375 282 -298 667
-520 1083 -624 289 -72 632 -80 930 -20 234 47 514 163 715 297 146 97 163
117 168 195 3 52 0 67 -20 96 -34 50 -82 73 -143 68 -41 -3 -67 -15 -145 -66
-478 -316 -1044 -394 -1590 -220 -129 41 -374 164 -490 246 -123 87 -346 310
-433 433 -37 52 -98 157 -137 234 -224 445 -261 934 -104 1404 208 624 742
1092 1397 1224 152 31 488 33 642 4 662 -124 1217 -591 1429 -1203 35 -101 81
-294 74 -312 -1 -6 -162 73 -355 175 -214 113 -368 188 -390 191 -46 5 -117
-28 -146 -69 -11 -14 -22 -49 -25 -76 -5 -53 10 -92 50 -129 33 -31 986 -532
1026 -539 46 -9 102 10 134 43 14 16 143 249 285 518 241 458 258 493 258 542
0 141 -175 207 -272 101 -17 -18 -123 -215 -266 -493 -11 -21 -17 -26 -20 -15
-3 8 -21 69 -42 135 -150 487 -515 922 -1005 1200 -237 135 -533 230 -820 265
-118 14 -406 11 -523 -6z"/>
</g>
</svg>
